<svg width="240" height="40" viewBox="0 0 240 40" fill="none" xmlns="http://www.w3.org/2000/svg">
<path d="M0 0H41.5546V20.1151C41.5546 25.2733 38.7045 30.0288 34.0608 32.6175L20.7872 40L7.5137 32.6175C2.86996 30.0479 0.0199299 25.2733 0.0199299 20.1151V0H0Z" fill="#FFDD2D"/>
<path fill-rule="evenodd" clip-rule="evenodd" d="M11.4001 10.5849V16.8361C12.297 15.8773 13.9114 15.2254 15.7449 15.2254H17.7579V22.4929C17.7579 24.4296 17.2198 26.117 16.4026 27.0566H25.1321C24.3149 26.117 23.7768 24.4296 23.7768 22.4929V15.2254H25.7898C27.6433 15.2254 29.2576 15.8773 30.1346 16.8361V10.5849H11.4001Z" fill="#333333"/>
<path d="M229.497 9.64526V11.3135C236.074 11.4478 240 14.1131 240 18.8111C240 23.5091 236.074 25.9636 229.497 26.117V27.7852H224.295V26.117C217.758 25.9827 213.832 23.5283 213.832 18.8111C213.832 14.1131 217.758 11.4478 224.295 11.3135V9.64526H229.497ZM224.295 22.5887V14.8802C220.708 15.0144 219.113 16.606 219.113 18.8303C219.113 21.0355 220.708 22.4545 224.295 22.5887ZM229.497 14.8802V22.5887C233.124 22.4545 234.679 21.0355 234.679 18.8111C234.679 16.606 233.144 15.0144 229.497 14.8802Z" fill="#333333"/>
<path d="M201.674 9.64526V11.3135C208.251 11.4478 212.177 14.1131 212.177 18.8111C212.177 23.5091 208.251 25.9636 201.674 26.117V27.7852H196.472V26.117C189.935 25.9827 186.009 23.5283 186.009 18.8111C186.009 14.1131 189.935 11.4478 196.472 11.3135V9.64526H201.674ZM196.452 22.5887V14.8802C192.865 15.0144 191.271 16.606 191.271 18.8303C191.291 21.0355 192.865 22.4545 196.452 22.5887ZM201.674 14.8802V22.5887C205.302 22.4545 206.856 21.0355 206.856 18.8111C206.856 16.606 205.302 15.0144 201.674 14.8802Z" fill="#333333"/>
<path d="M173.134 10.1439C180.11 10.1439 184.315 13.9406 184.315 18.8495C184.315 23.7584 180.11 27.5552 173.134 27.5552C166.119 27.5552 161.913 23.7584 161.913 18.8495C161.933 13.9406 166.139 10.1439 173.134 10.1439ZM173.134 23.5475C176.582 23.5475 178.854 21.5341 178.854 18.8495C178.854 16.1458 176.582 14.1899 173.134 14.1899C169.646 14.1899 167.414 16.165 167.414 18.8495C167.414 21.5533 169.646 23.5475 173.134 23.5475Z" fill="#333333"/>
<path d="M149.258 20.8246H147.823V27.0566H142.621V10.6041H147.823V16.7977H149.258L155.556 10.6041H162.093L153.762 18.466L162.432 27.0374H155.496L149.258 20.8246Z" fill="#333333"/>
<path d="M132.197 27.0566H121.634V10.6041H126.856V15.0144H132.217C133.513 15.0144 134.868 15.0528 136.024 15.4555C138.435 16.3184 139.95 18.2167 139.95 20.9588C139.95 23.8351 138.196 25.9444 135.486 26.6731C134.449 26.9416 133.373 27.0566 132.197 27.0566ZM131.281 18.8879H126.816V23.0681H131.281C132.177 23.0681 132.755 23.0681 133.333 22.8188C134.15 22.4737 134.669 21.745 134.669 20.8821C134.669 20.0576 134.17 19.3672 133.293 19.0796C132.696 18.8879 131.998 18.8879 131.281 18.8879Z" fill="#333333"/>
<path d="M112.466 20.9204H104.096V27.0374H98.8939V10.5848H104.096V16.6059H112.466V10.5848H117.668V27.0374H112.466V20.9204Z" fill="#333333"/>
<path d="M81.3353 20.1726L90.3239 10.5848H94.9278V27.0374H89.726V17.4497L80.7374 27.0374H76.1335V10.5848H81.3353V20.1726Z" fill="#333333"/>
<path d="M66.5671 27.0566H61.166V14.9952H53.752V10.6041H73.9612V14.9952H66.5671V27.0566Z" fill="#333333"/>
</svg>
