<svg width="36" height="34" viewBox="0 0 36 34" fill="none" xmlns="http://www.w3.org/2000/svg">
<path d="M34.6667 9.08333H24.6667C23.9834 9.08333 23.4167 8.51667 23.4167 7.83333C23.4167 7.15 23.9834 6.58333 24.6667 6.58333H34.6667C35.35 6.58333 35.9167 7.15 35.9167 7.83333C35.9167 8.51667 35.35 9.08333 34.6667 9.08333Z" fill="black"/>
<path d="M8.00004 9.08333H1.33337C0.650041 9.08333 0.083374 8.51667 0.083374 7.83333C0.083374 7.15 0.650041 6.58333 1.33337 6.58333H8.00004C8.68337 6.58333 9.25004 7.15 9.25004 7.83333C9.25004 8.51667 8.68337 9.08333 8.00004 9.08333Z" fill="black"/>
<path d="M14.6667 14.9167C10.7667 14.9167 7.58337 11.7333 7.58337 7.83333C7.58337 3.93333 10.7667 0.75 14.6667 0.75C18.5667 0.75 21.75 3.93333 21.75 7.83333C21.75 11.7333 18.5667 14.9167 14.6667 14.9167ZM14.6667 3.25C12.1334 3.25 10.0834 5.3 10.0834 7.83333C10.0834 10.3667 12.1334 12.4167 14.6667 12.4167C17.2 12.4167 19.25 10.3667 19.25 7.83333C19.25 5.3 17.2 3.25 14.6667 3.25Z" fill="black"/>
<path d="M34.6667 27.4167H28C27.3167 27.4167 26.75 26.85 26.75 26.1667C26.75 25.4833 27.3167 24.9167 28 24.9167H34.6667C35.35 24.9167 35.9167 25.4833 35.9167 26.1667C35.9167 26.85 35.35 27.4167 34.6667 27.4167Z" fill="black"/>
<path d="M11.3334 27.4167H1.33337C0.650041 27.4167 0.083374 26.85 0.083374 26.1667C0.083374 25.4833 0.650041 24.9167 1.33337 24.9167H11.3334C12.0167 24.9167 12.5834 25.4833 12.5834 26.1667C12.5834 26.85 12.0167 27.4167 11.3334 27.4167Z" fill="black"/>
<path d="M21.3334 33.25C17.4334 33.25 14.25 30.0667 14.25 26.1667C14.25 22.2667 17.4334 19.0833 21.3334 19.0833C25.2334 19.0833 28.4167 22.2667 28.4167 26.1667C28.4167 30.0667 25.2334 33.25 21.3334 33.25ZM21.3334 21.5833C18.8 21.5833 16.75 23.6333 16.75 26.1667C16.75 28.7 18.8 30.75 21.3334 30.75C23.8667 30.75 25.9167 28.7 25.9167 26.1667C25.9167 23.6333 23.8667 21.5833 21.3334 21.5833Z" fill="black"/>
</svg>
