<svg width="50" height="51" viewBox="0 0 50 51" fill="none" xmlns="http://www.w3.org/2000/svg">
<path fill-rule="evenodd" clip-rule="evenodd" d="M50 50.5532H40V32.862C40 28.0089 37.8825 25.3013 34.085 25.3013C29.9525 25.3013 27.5 28.1227 27.5 32.862V50.5532H17.5V17.6936H27.5V21.3888C27.5 21.3888 30.6375 15.8226 37.7075 15.8226C44.78 15.8226 50 20.1862 50 29.215V50.5532ZM6.105 12.4384C2.7325 12.4384 0 9.65303 0 6.21794C0 2.78538 2.7325 0 6.105 0C9.475 0 12.2075 2.78538 12.2075 6.21794C12.21 9.65303 9.475 12.4384 6.105 12.4384ZM0 50.5532H12.5V17.6936H0V50.5532Z" fill="black"/>
</svg>
