<svg width="50" height="51" viewBox="0 0 50 51" fill="none" xmlns="http://www.w3.org/2000/svg">
<path fill-rule="evenodd" clip-rule="evenodd" d="M24.9999 39.064C32.531 39.064 38.6363 32.8912 38.6363 25.2767C38.6363 17.6623 32.531 11.4895 24.9999 11.4895C17.4687 11.4895 11.3635 17.6623 11.3635 25.2767C11.3635 32.8912 17.4687 39.064 24.9999 39.064ZM24.9999 34.4682C30.0206 34.4682 34.0908 30.353 34.0908 25.2767C34.0908 20.2004 30.0206 16.0852 24.9999 16.0852C19.9791 16.0852 15.909 20.2004 15.909 25.2767C15.909 30.353 19.9791 34.4682 24.9999 34.4682Z" fill="black"/>
<path d="M38.6356 9.19092C37.3804 9.19092 36.3629 10.2197 36.3629 11.4888C36.3629 12.7579 37.3804 13.7867 38.6356 13.7867C39.8909 13.7867 40.9084 12.7579 40.9084 11.4888C40.9084 10.2197 39.8909 9.19092 38.6356 9.19092Z" fill="black"/>
<path fill-rule="evenodd" clip-rule="evenodd" d="M1.48627 7.52797C0 10.4772 0 14.338 0 22.0596V28.4936C0 36.2152 0 40.076 1.48627 43.0251C2.79364 45.6194 4.87973 47.7286 7.44559 49.0504C10.3626 50.5532 14.1811 50.5532 21.8182 50.5532H28.1818C35.8189 50.5532 39.6375 50.5532 42.5543 49.0504C45.1202 47.7286 47.2064 45.6194 48.5136 43.0251C50 40.076 50 36.2152 50 28.4936V22.0596C50 14.338 50 10.4772 48.5136 7.52797C47.2064 4.93372 45.1202 2.82454 42.5543 1.50272C39.6375 0 35.8189 0 28.1818 0H21.8182C14.1811 0 10.3626 0 7.44559 1.50272C4.87973 2.82454 2.79364 4.93372 1.48627 7.52797ZM28.1818 4.59574H21.8182C17.9246 4.59574 15.2778 4.59933 13.232 4.76831C11.2392 4.93293 10.2201 5.23131 9.50918 5.59755C7.79861 6.47878 6.40789 7.8849 5.5363 9.61439C5.17407 10.3332 4.87895 11.3635 4.71614 13.3784C4.549 15.4469 4.54545 18.123 4.54545 22.0596V28.4936C4.54545 32.4303 4.549 35.1062 4.71614 37.1747C4.87895 39.1898 5.17407 40.2201 5.5363 40.9389C6.40789 42.6683 7.79861 44.0743 9.50918 44.9556C10.2201 45.3219 11.2392 45.6203 13.232 45.7849C15.2778 45.9538 17.9246 45.9574 21.8182 45.9574H28.1818C32.0755 45.9574 34.722 45.9538 36.768 45.7849C38.7609 45.6203 39.78 45.3219 40.4909 44.9556C42.2014 44.0743 43.592 42.6683 44.4636 40.9389C44.8259 40.2201 45.1211 39.1898 45.2839 37.1747C45.4509 35.1062 45.4545 32.4303 45.4545 28.4936V22.0596C45.4545 18.123 45.4509 15.4469 45.2839 13.3784C45.1211 11.3635 44.8259 10.3332 44.4636 9.61439C43.592 7.8849 42.2014 6.47878 40.4909 5.59755C39.78 5.23131 38.7609 4.93293 36.768 4.76831C34.722 4.59933 32.0755 4.59574 28.1818 4.59574Z" fill="black"/>
</svg>
