<svg width="201" height="50" viewBox="0 0 201 50" fill="none" xmlns="http://www.w3.org/2000/svg">
<path d="M14 15.44C16.6933 15.44 18.9867 16.4667 20.88 18.52C22.8 20.5467 23.76 23.04 23.76 26C23.76 28.96 22.8 31.4667 20.88 33.52C18.9867 35.5467 16.6933 36.56 14 36.56C11.2 36.56 9.04 35.5867 7.52 33.64V44H2.36V16H7.52V18.36C9.04 16.4133 11.2 15.44 14 15.44ZM9.08 30.08C10.12 31.12 11.44 31.64 13.04 31.64C14.64 31.64 15.96 31.12 17 30.08C18.0667 29.0133 18.6 27.6533 18.6 26C18.6 24.3467 18.0667 23 17 21.96C15.96 20.8933 14.64 20.36 13.04 20.36C11.44 20.36 10.12 20.8933 9.08 21.96C8.04 23 7.52 24.3467 7.52 26C7.52 27.6533 8.04 29.0133 9.08 30.08ZM32.5591 19.44C33.0391 18.16 33.8257 17.2 34.9191 16.56C36.0391 15.92 37.2791 15.6 38.6391 15.6V21.36C37.0657 21.1733 35.6524 21.4933 34.3991 22.32C33.1724 23.1467 32.5591 24.52 32.5591 26.44V36H27.3991V16H32.5591V19.44ZM57.9547 33.52C55.9014 35.5467 53.3947 36.56 50.4347 36.56C47.4747 36.56 44.968 35.5467 42.9147 33.52C40.888 31.4667 39.8747 28.96 39.8747 26C39.8747 23.04 40.888 20.5467 42.9147 18.52C44.968 16.4667 47.4747 15.44 50.4347 15.44C53.3947 15.44 55.9014 16.4667 57.9547 18.52C60.008 20.5467 61.0347 23.04 61.0347 26C61.0347 28.96 60.008 31.4667 57.9547 33.52ZM46.5547 29.96C47.5947 31 48.888 31.52 50.4347 31.52C51.9814 31.52 53.2747 31 54.3147 29.96C55.3547 28.92 55.8747 27.6 55.8747 26C55.8747 24.4 55.3547 23.08 54.3147 22.04C53.2747 21 51.9814 20.48 50.4347 20.48C48.888 20.48 47.5947 21 46.5547 22.04C45.5414 23.08 45.0347 24.4 45.0347 26C45.0347 27.6 45.5414 28.92 46.5547 29.96ZM81.5997 16V36H76.4397V20.96H70.5597V36H65.3997V20.96H62.5197V16H65.3997V15.8C65.3997 10.2267 68.533 7.44 74.7997 7.44C76.213 7.44 77.773 7.62666 79.4797 8V12.72C77.693 12.5067 76.133 12.4 74.7997 12.4C73.3597 12.4 72.293 12.6533 71.5997 13.16C70.9064 13.64 70.5597 14.52 70.5597 15.8V16H81.5997ZM91.4653 19.44C91.9453 18.16 92.732 17.2 93.8253 16.56C94.9453 15.92 96.1853 15.6 97.5453 15.6V21.36C95.972 21.1733 94.5586 21.4933 93.3053 22.32C92.0786 23.1467 91.4653 24.52 91.4653 26.44V36H86.3053V16H91.4653V19.44ZM115.021 16H120.181V36H115.021V33.64C113.474 35.5867 111.301 36.56 108.501 36.56C105.834 36.56 103.541 35.5467 101.621 33.52C99.7276 31.4667 98.7809 28.96 98.7809 26C98.7809 23.04 99.7276 20.5467 101.621 18.52C103.541 16.4667 105.834 15.44 108.501 15.44C111.301 15.44 113.474 16.4133 115.021 18.36V16ZM105.501 30.08C106.541 31.12 107.861 31.64 109.461 31.64C111.061 31.64 112.381 31.12 113.421 30.08C114.488 29.0133 115.021 27.6533 115.021 26C115.021 24.3467 114.488 23 113.421 21.96C112.381 20.8933 111.061 20.36 109.461 20.36C107.861 20.36 106.541 20.8933 105.501 21.96C104.461 23 103.941 24.3467 103.941 26C103.941 27.6533 104.461 29.0133 105.501 30.08ZM140.02 8H145.18V36H140.02V33.64C138.5 35.5867 136.34 36.56 133.54 36.56C130.847 36.56 128.54 35.5467 126.62 33.52C124.727 31.4667 123.78 28.96 123.78 26C123.78 23.04 124.727 20.5467 126.62 18.52C128.54 16.4667 130.847 15.44 133.54 15.44C136.34 15.44 138.5 16.4133 140.02 18.36V8ZM130.5 30.08C131.567 31.12 132.9 31.64 134.5 31.64C136.1 31.64 137.42 31.12 138.46 30.08C139.5 29.0133 140.02 27.6533 140.02 26C140.02 24.3467 139.5 23 138.46 21.96C137.42 20.8933 136.1 20.36 134.5 20.36C132.9 20.36 131.567 20.8933 130.5 21.96C129.46 23 128.94 24.3467 128.94 26C128.94 27.6533 129.46 29.0133 130.5 30.08ZM165.099 16H170.259V36H165.099V33.64C163.552 35.5867 161.379 36.56 158.579 36.56C155.912 36.56 153.619 35.5467 151.699 33.52C149.806 31.4667 148.859 28.96 148.859 26C148.859 23.04 149.806 20.5467 151.699 18.52C153.619 16.4667 155.912 15.44 158.579 15.44C161.379 15.44 163.552 16.4133 165.099 18.36V16ZM155.579 30.08C156.619 31.12 157.939 31.64 159.539 31.64C161.139 31.64 162.459 31.12 163.499 30.08C164.566 29.0133 165.099 27.6533 165.099 26C165.099 24.3467 164.566 23 163.499 21.96C162.459 20.8933 161.139 20.36 159.539 20.36C157.939 20.36 156.619 20.8933 155.579 21.96C154.539 23 154.019 24.3467 154.019 26C154.019 27.6533 154.539 29.0133 155.579 30.08ZM180.098 19.44C180.578 18.16 181.365 17.2 182.458 16.56C183.578 15.92 184.818 15.6 186.178 15.6V21.36C184.605 21.1733 183.191 21.4933 181.938 22.32C180.711 23.1467 180.098 24.52 180.098 26.44V36H174.938V16H180.098V19.44Z" fill="black"/>
<rect x="191" y="26" width="10" height="10" fill="#FF007A"/>
</svg>
