<svg width="50" height="51" viewBox="0 0 50 51" fill="none" xmlns="http://www.w3.org/2000/svg">
<path d="M35.2208 15.1307C35.2307 15.1307 35.244 15.1307 35.2573 15.1307C35.6042 15.1307 35.9263 15.2398 36.1902 15.4278L36.1853 15.4244C36.3778 15.5939 36.5073 15.8323 36.5388 16.1008V16.1059C36.572 16.3106 36.5903 16.5456 36.5903 16.7856C36.5903 16.8947 36.587 17.0021 36.5787 17.1095V17.0944C36.2052 21.0705 34.585 30.7129 33.7616 35.164C33.413 37.0488 32.7274 37.6799 32.0634 37.7403C30.6208 37.8763 29.5252 36.7769 28.1275 35.8505C25.9396 34.3987 24.7029 33.4957 22.5797 32.0808C20.1245 30.4477 21.7165 29.5464 23.1142 28.0795C23.4811 27.6935 29.8406 21.8443 29.9651 21.3139C29.9718 21.282 29.9751 21.2468 29.9751 21.2099C29.9751 21.0789 29.927 20.9598 29.8489 20.8691C29.7626 20.8121 29.6547 20.7802 29.5418 20.7802C29.4671 20.7802 29.3958 20.7953 29.3293 20.8205L29.3327 20.8188C29.1135 20.8691 25.6186 23.2043 18.8479 27.8244C18.1092 28.4135 17.1763 28.7861 16.1604 28.8298H16.1504C14.7112 28.6535 13.4047 28.3296 12.1647 27.868L12.2875 27.9083C10.7304 27.3947 9.49369 27.1245 9.59993 26.2551C9.65637 25.8031 10.2728 25.3404 11.4492 24.8671C18.6958 21.6748 23.5281 19.5706 25.9462 18.5546C28.6139 17.123 31.7065 15.9447 34.9585 15.1811L35.2191 15.129L35.2208 15.1307ZM24.9419 0C11.1604 0.0335679 0 11.3375 0 25.2766C0 39.2358 11.1919 50.5532 25 50.5532C38.8081 50.5532 50 39.2375 50 25.2766C50 11.3375 38.8396 0.0335679 25.0614 0H25.0581C25.0194 0 24.9806 0 24.9419 0Z" fill="black"/>
</svg>
